/* XPM */
static char *e677906d4ce5409cd6e53febd09669ac[] = {
/* columns rows colors chars-per-pixel */
"32 32 45 1 ",
"  c #BF392B",
". c #BF3A2C",
"X c #C0392B",
"o c #C13F31",
"O c #C24234",
"+ c #C54B3D",
"@ c #C54C3F",
"# c #C74E43",
"$ c #C75245",
"% c #C75146",
"& c #C75246",
"* c #C75346",
"= c #C95549",
"- c #C85649",
"; c #C8564A",
": c #C9564A",
"> c #CA5A4D",
", c #CB5D51",
"< c #CB5F52",
"1 c #CB5F53",
"2 c #CC5F53",
"3 c #CC6054",
"4 c #CC6154",
"5 c #CC6155",
"6 c #CC6256",
"7 c #CC6257",
"8 c #CD6458",
"9 c #CD6559",
"0 c #CD655A",
"q c #CE665A",
"w c #CE675C",
"e c #CF695E",
"r c #CF6B60",
"t c #D06D62",
"y c #D16F64",
"u c #D17065",
"i c #D27267",
"p c #D3776B",
"a c #D3766C",
"s c #D3776C",
"d c #D4786D",
"f c #D4796E",
"g c #D7827A",
"h c #D98880",
"j c None",
/* pixels */
"jjjjjjjjjjjjjjjjjjjjjjjjjjjjjjjj",
"jjjjjjjjjjjjjjjjjjjjjjjjjjjjjjjj",
"jjjjjjjjjjjjjjjjjjjjjjjjjjjjjjjj",
"jjjjjjjjjjjjjjjjjjjjjjjjjjjjjjjj",
"jjjjjjjjjjjjjjjjjjjjjjjjjjjjjjjj",
"jjjjjjjjqffffffiiffffffqjjjjjjjj",
"jjjjjjj$tfffffaggpffffft$jjjjjjj",
"jjjjjjj3rfffffahhafffffr3jjjjjjj",
"jjjjjj<3rffffihhhhiffffw3<jjjjjj",
"jjjjj>33wffffghhhggffffw33>jjjjj",
"jjjj;355qfffahhhhhhffffq373;jjjj",
"jjj$5558qffihhhhhhhgpff9333q#jjj",
"jjj333335faghhhhhhhhgff53733<jjj",
"jj+;53335fahhhhhhhhhhaa5333<;+jj",
"jjjX.O@;<yhhhhhhhhhhhhu<>#O.Xjjj",
"jjjj.   .-577777777975-     jjjj",
"jjjjj    o555555555555o    jjjjj",
"jjjjjj   .$5555555555$    jjjjjj",
"jjjjjjj   o5555555553O   jjjjjjj",
"jjjjjjjj  .*55555555$   jjjjjjjj",
"jjjjjjjjj  o55555555o. jjjjjjjjj",
"jjjjjjjjjj  $555555$..jjjjjjjjjj",
"jjjjjjjjjjj o5q3555o jjjjjjjjjjj",
"jjjjjjjjjjjj.$5355*.jjjjjjjjjjjj",
"jjjjjjjjjjjjjO3333ojjjjjjjjjjjjj",
"jjjjjjjjjjjjjj*33$jjjjjjjjjjjjjj",
"jjjjjjjjjjjjjjj23jjjjjjjjjjjjjjj",
"jjjjjjjjjjjjjjjjjjjjjjjjjjjjjjjj",
"jjjjjjjjjjjjjjjjjjjjjjjjjjjjjjjj",
"jjjjjjjjjjjjjjjjjjjjjjjjjjjjjjjj",
"jjjjjjjjjjjjjjjjjjjjjjjjjjjjjjjj",
"jjjjjjjjjjjjjjjjjjjjjjjjjjjjjjjj"
};
