/* XPM */
static char *_1e58215efbe460cbdacb0317d78945d[] = {
/* columns rows colors chars-per-pixel */
"16 16 30 1 ",
"  c #BF392B",
". c #BF3A2C",
"X c #C03B2D",
"o c #C34537",
"O c #C54B3D",
"+ c #C74E40",
"@ c #C75244",
"# c #C75345",
"$ c #C75346",
"% c #C9594D",
"& c #CB5D51",
"* c #CB5E52",
"= c #CC6054",
"- c #CC6155",
"; c #CC6255",
": c #CF685C",
"> c #CF6A5F",
", c #D06D61",
"< c #D06D63",
"1 c #D16F64",
"2 c #D17166",
"3 c #D27267",
"4 c #D27368",
"5 c #D3756B",
"6 c #D3766B",
"7 c #D3776C",
"8 c #D4796E",
"9 c #D78279",
"0 c #D98880",
"q c None",
/* pixels */
"qqqqqqqqqqqqqqqq",
"qqqqqqqqqqqqqqqq",
"qqqq;>>::>>=qqqq",
"qqq#38855884$qqq",
"qqq=38309353=qqq",
"qq*=18900983=;qq",
"q#==,500005,==#q",
"qqXo%,<<<21%oXqq",
"qqq .*==;;*..qqq",
"qqqq.+;=;;O.qqqq",
"qqqqq.*=*&.qqqqq",
"qqqqqqO=-+qqqqqq",
"qqqqqqq**qqqqqqq",
"qqqqqqq+Oqqqqqqq",
"qqqqqqqqqqqqqqqq",
"qqqqqqqqqqqqqqqq"
};
