/* XPM */
static char *_6175cadb1fd4b5ea92e10bc9bfc099a[] = {
/* columns rows colors chars-per-pixel */
"64 64 62 1 ",
"  c #BF392B",
". c #BE3A2C",
"X c #C03C2E",
"o c #C03C2F",
"O c #C03D2F",
"+ c #C34639",
"@ c #C34739",
"# c #C64D40",
"$ c #C64E41",
"% c #C74F44",
"& c #C75042",
"* c #C75043",
"= c #C75044",
"- c #C75144",
"; c #C65145",
": c #C75146",
"> c #C75346",
", c #C85649",
"< c #C8554A",
"1 c #C8564A",
"2 c #C8574A",
"3 c #C8584B",
"4 c #C95A4D",
"5 c #CA5A4D",
"6 c #C95A4E",
"7 c #CA5A4E",
"8 c #CB5A4E",
"9 c #CA5B4E",
"0 c #CA5B4F",
"q c #CB5E52",
"w c #CB5F53",
"e c #CC5F53",
"r c #CC6054",
"t c #CC6155",
"y c #CD6357",
"u c #CD6559",
"i c #CD655A",
"p c #CE665B",
"a c #CE675B",
"s c #CE685D",
"d c #CF695D",
"f c #CF695E",
"g c #CF6B5F",
"h c #D06D62",
"j c #D06F63",
"k c #D16F64",
"l c #D17166",
"z c #D27267",
"x c #D27368",
"c c #D27468",
"v c #D3756A",
"b c #D3766A",
"n c #D3766B",
"m c #D3776C",
"M c #D3776D",
"N c #D3786E",
"B c #D4786D",
"V c #D4796E",
"C c #D8837B",
"Z c #D8847B",
"A c #D98880",
"S c None",
/* pixels */
"SSSSSSSSSSSSSSSSSSSSSSSSSSSSSSSSSSSSSSSSSSSSSSSSSSSSSSSSSSSSSSSS",
"SSSSSSSSSSSSSSSSSSSSSSSSSSSSSSSSSSSSSSSSSSSSSSSSSSSSSSSSSSSSSSSS",
"SSSSSSSSSSSSSSSSSSSSSSSSSSSSSSSSSSSSSSSSSSSSSSSSSSSSSSSSSSSSSSSS",
"SSSSSSSSSSSSSSSSSSSSSSSSSSSSSSSSSSSSSSSSSSSSSSSSSSSSSSSSSSSSSSSS",
"SSSSSSSSSSSSSSSSSSSSSSSSSSSSSSSSSSSSSSSSSSSSSSSSSSSSSSSSSSSSSSSS",
"SSSSSSSSSSSSSSSSSSSSSSSSSSSSSSSSSSSSSSSSSSSSSSSSSSSSSSSSSSSSSSSS",
"SSSSSSSSSSSSSSSSSSSSSSSSSSSSSSSSSSSSSSSSSSSSSSSSSSSSSSSSSSSSSSSS",
"SSSSSSSSSSSSSSSSSSSSSSSSSSSSSSSSSSSSSSSSSSSSSSSSSSSSSSSSSSSSSSSS",
"SSSSSSSSSSSSSSSSSSSSSSSSSSSSSSSSSSSSSSSSSSSSSSSSSSSSSSSSSSSSSSSS",
"SSSSSSSSSSSSSSSSSSSSSSSSSSSSSSSSSSSSSSSSSSSSSSSSSSSSSSSSSSSSSSSS",
"SSSSSSSSSSSSSSSSSaVVVVVVVVVVVVVzzVVVVVVVVVVVVVfSSSSSSSSSSSSSSSSS",
"SSSSSSSSSSSSSSSS3VVVVVVVVVVVVVMCCmVVVVVVVVVVVVV8SSSSSSSSSSSSSSSS",
"SSSSSSSSSSSSSSS;iVVVVVVVVVVVVVMAAVVVVVVVVVVVVVVi;SSSSSSSSSSSSSSS",
"SSSSSSSSSSSSSSSrrVVVVVVVVVVVVxAAAAzVVVVVVVVVVVVrrSSSSSSSSSSSSSSS",
"SSSSSSSSSSSSSSqrrVVVVVVVVVVVcZAAAACmVVVVVVVVVVmrrrSSSSSSSSSSSSSS",
"SSSSSSSSSSSSSqrrrcVVVVVVVVVVVAAAAAAVVVVVVVVVVVvrrr3SSSSSSSSSSSSS",
"SSSSSSSSSSSS2rrrycVVVVVVNNVzAAAAAAAAzVVVVVVVVNcrrry2SSSSSSSSSSSS",
"SSSSSSSSSSS;rryrrlVVVVVVNNVZAAAAAAAAZMVVVVVVVNlryrrr>SSSSSSSSSSS",
"SSSSSSSSSSSryyrrrhNVVVVVNNMAAAAAAAAAZNVVVVVVVVlrrrryrSSSSSSSSSSS",
"SSSSSSSSSSwyrrryyhNNVVVVMlAAAAAAAAAAAAlVVVVVVVhyyyrrrqSSSSSSSSSS",
"SSSSSSSSS3rrrrryrgVVVVVVMCAAAAAAAAAAAAZMVVVVVVgrrrtttt6SSSSSSSSS",
"SSSSSSSS2tyryyrrrfVVVVVVMAAAAAAAAAAAAAAVVVVVVVgrryttttt1SSSSSSSS",
"SSSSSSS;ttttrryrrfVVVVVcAAAAAAAAAAAAAAAAlVVVVVsrrryytttt>SSSSSSS",
"SSSSSS:rtttttyrrriVVVVMZAAAAAAAAAAAAAAAAZVVVVNyryrrrttttr;SSSSSS",
"SSSSSSrrrrryrryyryVVVVMAAAAAAAAAAAAAAAAAAVVVVVyyyrrrrrryrrSSSSSS",
"SSSSS3rrryrryrrrryVVVlAAAAAAAAAAAAAAAAAAAAlVVVrrrryyyyrrrr3SSSSS",
"SSSSSrrryryryrrryrVVMCAAAAAAAAAAAAAAAAAAAAZVVVryryrrrrrrrrrSSSSS",
"SSSSSO@&0ryrrryrrrcVVAAAAAAAAAAAAAAAAAAAAAANVcrrrryrrye3:@OSSSSS",
"SSSSS.  .O@;3rrrryccAAAAAAAAAAAAAAAAAAAAAAAAxcrryrr0;@X   .SSSSS",
"SSSSSS  ..  .O@;0rgCAAAAAAAAAAAAAAAAAAAAAAAAZzr0;+O.  X  XSSSSSS",
"SSSSSSSX    X   ..3ipppayayaiiiiayaaaasyfyiii2..  ..     SSSSSSS",
"SSSSSSSS        ..Orrrrrryyrwywyttrrrryrrrrrr.          SSSSSSSS",
"SSSSSSSSS         .&rrryttttttttttttttttryrr;.         SSSSSSSSS",
"SSSSSSSSSS         .ryrrttttttttttttttttryrr.         SSSSSSSSSS",
"SSSSSSSSSSS         ;ryrttttttttttttttttrrr$.        SSSSSSSSSSS",
"SSSSSSSSSSSS      ...wrrttttttttttttttttrrwXX       SSSSSSSSSSSS",
"SSSSSSSSSSSSS       .$rrttttttttttttttttrr&X       SSSSSSSSSSSSS",
"SSSSSSSSSSSSSS      ..rrttttttttttttttttrr..      SSSSSSSSSSSSSS",
"SSSSSSSSSSSSSSS       $ttttttttyttttttttr$       SSSSSSSSSSSSSSS",
"SSSSSSSSSSSSSSSS    ...ttttttttrttttttttqO      SSSSSSSSSSSSSSSS",
"SSSSSSSSSSSSSSSSS      $rryyrryrttttryry$.     SSSSSSSSSSSSSSSSS",
"SSSSSSSSSSSSSSSSSS     Orrrrryrrttttryrwo.    SSSSSSSSSSSSSSSSSS",
"SSSSSSSSSSSSSSSSSSS     $rrrrryyttttrrr$     SSSSSSSSSSSSSSSSSSS",
"SSSSSSSSSSSSSSSSSSSS    .riryrrrttttyrw.    SSSSSSSSSSSSSSSSSSSS",
"SSSSSSSSSSSSSSSSSSSSS   .$rrrrrytttttt$.   SSSSSSSSSSSSSSSSSSSSS",
"SSSSSSSSSSSSSSSSSSSSSS  ..rryyrrtttttw.   SSSSSSSSSSSSSSSSSSSSSS",
"SSSSSSSSSSSSSSSSSSSSSSS ..$trryrttttt$.  SSSSSSSSSSSSSSSSSSSSSSS",
"SSSSSSSSSSSSSSSSSSSSSSSS...tryrrttttwo..SSSSSSSSSSSSSSSSSSSSSSSS",
"SSSSSSSSSSSSSSSSSSSSSSSSS  &rryyrirr$  SSSSSSSSSSSSSSSSSSSSSSSSS",
"SSSSSSSSSSSSSSSSSSSSSSSSSSX.rrrrrrrqX SSSSSSSSSSSSSSSSSSSSSSSSSS",
"SSSSSSSSSSSSSSSSSSSSSSSSSSS &rrirrr$ SSSSSSSSSSSSSSSSSSSSSSSSSSS",
"SSSSSSSSSSSSSSSSSSSSSSSSSSSS.rrrryqOSSSSSSSSSSSSSSSSSSSSSSSSSSSS",
"SSSSSSSSSSSSSSSSSSSSSSSSSSSSS$rrrr$SSSSSSSSSSSSSSSSSSSSSSSSSSSSS",
"SSSSSSSSSSSSSSSSSSSSSSSSSSSSSS3ry0SSSSSSSSSSSSSSSSSSSSSSSSSSSSSS",
"SSSSSSSSSSSSSSSSSSSSSSSSSSSSSSSSSSSSSSSSSSSSSSSSSSSSSSSSSSSSSSSS",
"SSSSSSSSSSSSSSSSSSSSSSSSSSSSSSSSSSSSSSSSSSSSSSSSSSSSSSSSSSSSSSSS",
"SSSSSSSSSSSSSSSSSSSSSSSSSSSSSSSSSSSSSSSSSSSSSSSSSSSSSSSSSSSSSSSS",
"SSSSSSSSSSSSSSSSSSSSSSSSSSSSSSSSSSSSSSSSSSSSSSSSSSSSSSSSSSSSSSSS",
"SSSSSSSSSSSSSSSSSSSSSSSSSSSSSSSSSSSSSSSSSSSSSSSSSSSSSSSSSSSSSSSS",
"SSSSSSSSSSSSSSSSSSSSSSSSSSSSSSSSSSSSSSSSSSSSSSSSSSSSSSSSSSSSSSSS",
"SSSSSSSSSSSSSSSSSSSSSSSSSSSSSSSSSSSSSSSSSSSSSSSSSSSSSSSSSSSSSSSS",
"SSSSSSSSSSSSSSSSSSSSSSSSSSSSSSSSSSSSSSSSSSSSSSSSSSSSSSSSSSSSSSSS",
"SSSSSSSSSSSSSSSSSSSSSSSSSSSSSSSSSSSSSSSSSSSSSSSSSSSSSSSSSSSSSSSS",
"SSSSSSSSSSSSSSSSSSSSSSSSSSSSSSSSSSSSSSSSSSSSSSSSSSSSSSSSSSSSSSSS"
};
